<?xml version="1.0" encoding="utf-8"?>
<!-- Generator: Adobe Illustrator 27.5.0, SVG Export Plug-In . SVG Version: 6.00 Build 0)  -->
<svg version="1.1" xmlns="http://www.w3.org/2000/svg" xmlns:xlink="http://www.w3.org/1999/xlink" x="0px" y="0px"
	 viewBox="0 0 500 500" style="enable-background:new 0 0 500 500;" xml:space="preserve">
<g id="BACKGROUND">
	<rect style="fill:#FFFFFF;" width="500" height="500"/>
</g>
<g id="OBJECTS">
	<g>
		<path style="fill:#B5CBFF;" d="M388.667,140.422c-3.086-0.516-5.847,1.108-7.074,3.621c-0.399,0.819-1.176,1.386-2.087,1.386
			h-5.342c-1.539,0-2.817-1.117-3.106-2.628c-0.582-3.042-1.79-5.858-3.489-8.312c-0.886-1.281-0.788-2.995,0.313-4.096l0.768-0.768
			c0.634-0.634,1.564-0.78,2.418-0.506c2.366,0.758,5.124-0.053,6.638-2.451c1.137-1.8,1.142-4.185,0.011-5.989
			c-2.048-3.266-6.408-3.622-8.96-1.07c-1.544,1.544-2.017,3.746-1.43,5.7c0.278,0.925,0.119,1.924-0.565,2.608l-0.678,0.678
			c-1.101,1.101-2.815,1.2-4.096,0.313c-2.454-1.699-5.271-2.907-8.312-3.489c-1.511-0.289-2.628-1.567-2.628-3.106v-5.342
			c0-0.911,0.567-1.688,1.386-2.087c2.514-1.226,4.137-3.988,3.621-7.074c-0.472-2.825-2.848-5.081-5.691-5.427
			c-4.027-0.491-7.45,2.639-7.45,6.568c0,2.609,1.515,4.856,3.71,5.93c0.823,0.403,1.392,1.183,1.392,2.099v5.334
			c0,1.539-1.117,2.817-2.628,3.106c-3.042,0.582-5.858,1.79-8.312,3.489c-1.281,0.886-2.995,0.788-4.096-0.313l-0.768-0.768
			c-0.634-0.634-0.78-1.564-0.506-2.418c0.758-2.366-0.053-5.123-2.451-6.638c-1.8-1.137-4.185-1.143-5.989-0.012
			c-3.266,2.048-3.622,6.408-1.07,8.96c1.544,1.544,3.746,2.017,5.7,1.43c0.926-0.278,1.924-0.119,2.608,0.565l0.678,0.678
			c1.101,1.101,1.199,2.815,0.313,4.096c-1.699,2.454-2.907,5.27-3.489,8.312c-0.289,1.511-1.567,2.628-3.106,2.628h-5.342
			c-0.911,0-1.688-0.567-2.087-1.386c-1.226-2.514-3.988-4.137-7.074-3.621c-2.825,0.472-5.081,2.848-5.427,5.691
			c-0.491,4.027,2.639,7.45,6.568,7.45c2.609,0,4.856-1.515,5.93-3.71c0.402-0.823,1.183-1.393,2.099-1.393h5.334
			c1.539,0,2.817,1.117,3.106,2.628c0.581,3.042,1.79,5.858,3.489,8.312c0.886,1.281,0.788,2.995-0.313,4.096l-0.768,0.768
			c-0.634,0.634-1.564,0.78-2.418,0.506c-2.366-0.758-5.124,0.053-6.638,2.451c-1.137,1.8-1.142,4.185-0.012,5.989
			c2.048,3.266,6.408,3.622,8.96,1.07c1.544-1.544,2.017-3.746,1.43-5.699c-0.278-0.926-0.119-1.924,0.565-2.608l0.678-0.678
			c1.101-1.101,2.815-1.199,4.096-0.313c2.455,1.699,5.271,2.907,8.312,3.489c1.511,0.289,2.628,1.567,2.628,3.106v5.342
			c0,0.911-0.567,1.688-1.385,2.087c-2.514,1.226-4.137,3.988-3.621,7.074c0.472,2.825,2.848,5.081,5.691,5.427
			c4.027,0.491,7.45-2.639,7.45-6.568c0-2.609-1.515-4.856-3.71-5.93c-0.823-0.403-1.393-1.183-1.393-2.099v-5.334
			c0-1.539,1.117-2.817,2.628-3.106c3.042-0.582,5.858-1.79,8.312-3.489c1.281-0.886,2.995-0.788,4.096,0.313l0.768,0.768
			c0.634,0.634,0.78,1.564,0.506,2.418c-0.758,2.366,0.052,5.123,2.451,6.638c1.8,1.137,4.185,1.142,5.989,0.011
			c3.266-2.048,3.622-6.408,1.07-8.96c-1.544-1.544-3.746-2.017-5.699-1.43c-0.926,0.278-1.924,0.118-2.608-0.565l-0.678-0.678
			c-1.101-1.101-1.199-2.815-0.313-4.096c1.699-2.455,2.907-5.271,3.489-8.312c0.289-1.512,1.567-2.628,3.106-2.628h5.333
			c0.916,0,1.697,0.57,2.099,1.393c1.074,2.195,3.32,3.71,5.93,3.71c3.929,0,7.058-3.423,6.567-7.45
			C393.748,143.27,391.492,140.894,388.667,140.422z"/>
		<path style="fill:#B5CBFF;" d="M331.646,71.883c-1.788-0.299-3.388,0.642-4.098,2.098c-0.231,0.474-0.681,0.803-1.209,0.803
			h-3.095c-0.891,0-1.632-0.647-1.799-1.523c-0.337-1.762-1.037-3.394-2.021-4.816c-0.514-0.742-0.457-1.735,0.181-2.373
			l0.445-0.445c0.367-0.367,0.906-0.452,1.401-0.293c1.371,0.439,2.968-0.031,3.846-1.42c0.659-1.043,0.662-2.424,0.007-3.47
			c-1.186-1.892-3.712-2.098-5.191-0.62c-0.895,0.894-1.169,2.17-0.829,3.302c0.161,0.536,0.069,1.115-0.327,1.511l-0.393,0.393
			c-0.638,0.638-1.631,0.695-2.373,0.181c-1.422-0.984-3.053-1.684-4.816-2.021c-0.876-0.167-1.523-0.908-1.523-1.799v-3.095
			c0-0.528,0.328-0.978,0.803-1.209c1.456-0.71,2.397-2.31,2.098-4.098c-0.273-1.637-1.65-2.943-3.297-3.144
			c-2.333-0.284-4.316,1.529-4.316,3.805c0,1.512,0.878,2.813,2.15,3.435c0.477,0.233,0.807,0.685,0.807,1.216v3.09
			c0,0.892-0.647,1.632-1.523,1.799c-1.762,0.337-3.394,1.037-4.816,2.021c-0.742,0.513-1.735,0.457-2.373-0.181l-0.445-0.445
			c-0.367-0.367-0.452-0.906-0.293-1.401c0.439-1.371-0.03-2.968-1.42-3.846c-1.043-0.659-2.424-0.662-3.47-0.007
			c-1.892,1.186-2.099,3.712-0.62,5.191c0.894,0.894,2.17,1.169,3.302,0.828c0.536-0.161,1.115-0.069,1.511,0.327l0.393,0.393
			c0.638,0.638,0.695,1.631,0.181,2.373c-0.984,1.422-1.684,3.053-2.021,4.816c-0.167,0.876-0.908,1.523-1.799,1.523h-3.095
			c-0.528,0-0.978-0.328-1.209-0.803c-0.711-1.456-2.31-2.397-4.098-2.098c-1.637,0.273-2.943,1.65-3.144,3.297
			c-0.284,2.333,1.529,4.316,3.805,4.316c1.512,0,2.813-0.877,3.436-2.149c0.233-0.477,0.685-0.807,1.216-0.807h3.09
			c0.891,0,1.632,0.647,1.799,1.523c0.337,1.762,1.037,3.394,2.021,4.816c0.513,0.742,0.457,1.735-0.181,2.373l-0.445,0.445
			c-0.367,0.367-0.906,0.452-1.401,0.293c-1.371-0.439-2.968,0.031-3.846,1.42c-0.659,1.043-0.662,2.424-0.007,3.47
			c1.186,1.892,3.712,2.099,5.191,0.62c0.894-0.894,1.168-2.17,0.829-3.302c-0.161-0.536-0.069-1.115,0.327-1.511l0.393-0.393
			c0.638-0.638,1.631-0.695,2.373-0.181c1.422,0.984,3.054,1.684,4.816,2.021c0.876,0.167,1.523,0.908,1.523,1.799v3.095
			c0,0.528-0.328,0.978-0.803,1.209c-1.456,0.71-2.397,2.31-2.098,4.098c0.274,1.637,1.65,2.943,3.297,3.144
			c2.333,0.284,4.316-1.529,4.316-3.805c0-1.512-0.878-2.813-2.149-3.435c-0.477-0.233-0.807-0.685-0.807-1.216v-3.09
			c0-0.891,0.647-1.632,1.523-1.799c1.762-0.337,3.394-1.037,4.816-2.021c0.742-0.514,1.735-0.457,2.373,0.181l0.445,0.445
			c0.367,0.367,0.452,0.906,0.293,1.401c-0.439,1.371,0.03,2.968,1.42,3.846c1.043,0.659,2.425,0.662,3.47,0.007
			c1.892-1.186,2.099-3.712,0.62-5.191c-0.894-0.894-2.17-1.169-3.302-0.828c-0.536,0.161-1.115,0.069-1.511-0.327l-0.393-0.393
			c-0.638-0.638-0.695-1.631-0.181-2.373c0.984-1.422,1.684-3.053,2.021-4.816c0.167-0.876,0.908-1.523,1.799-1.523h3.09
			c0.531,0,0.983,0.33,1.216,0.807c0.622,1.272,1.924,2.149,3.435,2.149c2.276,0,4.089-1.983,3.805-4.316
			C334.59,73.533,333.283,72.157,331.646,71.883z"/>
		<rect x="312.235" y="217.328" style="fill:#B5CBFF;" width="123.015" height="196.938"/>
		<g>
			<path style="fill:none;stroke:#FFFFFF;stroke-width:1.0655;stroke-miterlimit:10;" d="M415.61,276.554h-63.859
				c-2.038,0-3.69-1.652-3.69-3.69l0,0c0-2.038,1.652-3.689,3.69-3.689h63.859c2.038,0,3.69,1.652,3.69,3.689l0,0
				C419.3,274.902,417.648,276.554,415.61,276.554z"/>
			<path style="fill:none;stroke:#FFFFFF;stroke-width:1.0655;stroke-miterlimit:10;" d="M415.61,301.1h-63.859
				c-2.038,0-3.69-1.652-3.69-3.69l0,0c0-2.038,1.652-3.69,3.69-3.69h63.859c2.038,0,3.69,1.652,3.69,3.69l0,0
				C419.3,299.448,417.648,301.1,415.61,301.1z"/>
			<path style="fill:none;stroke:#FFFFFF;stroke-width:1.0655;stroke-miterlimit:10;" d="M415.61,325.646h-63.859
				c-2.038,0-3.69-1.652-3.69-3.69l0,0c0-2.038,1.652-3.689,3.69-3.689h63.859c2.038,0,3.69,1.652,3.69,3.689l0,0
				C419.3,323.994,417.648,325.646,415.61,325.646z"/>
		</g>
		<rect x="312.235" y="217.328" style="fill:#08297A;" width="123.015" height="36.211"/>
		<path style="fill:none;stroke:#B5CBFF;stroke-miterlimit:10;" d="M445.731,245.345H343.279c-4.494,0-8.138-3.643-8.138-8.138l0,0
			c0-4.494,3.643-8.138,8.138-8.138h102.452c4.494,0,8.138,3.643,8.138,8.138l0,0C453.869,241.702,450.226,245.345,445.731,245.345z
			"/>
		<path style="fill:#B5CBFF;" d="M118.27,252.761c-2.693-0.45-5.104,0.967-6.174,3.161c-0.349,0.715-1.026,1.21-1.822,1.21h-4.663
			c-1.343,0-2.459-0.975-2.711-2.294c-0.508-2.655-1.563-5.113-3.045-7.255c-0.774-1.118-0.688-2.614,0.273-3.575l0.67-0.67
			c0.553-0.553,1.365-0.681,2.11-0.442c2.065,0.662,4.472-0.046,5.794-2.139c0.992-1.572,0.997-3.653,0.01-5.228
			c-1.787-2.85-5.593-3.161-7.821-0.934c-1.348,1.347-1.761,3.27-1.248,4.975c0.243,0.808,0.104,1.68-0.493,2.276l-0.592,0.592
			c-0.961,0.961-2.457,1.047-3.575,0.273c-2.142-1.483-4.6-2.538-7.255-3.045c-1.319-0.252-2.294-1.367-2.294-2.711v-4.663
			c0-0.795,0.495-1.473,1.21-1.822c2.194-1.07,3.611-3.481,3.161-6.174c-0.412-2.466-2.486-4.435-4.967-4.737
			c-3.515-0.428-6.503,2.303-6.503,5.733c0,2.278,1.322,4.238,3.239,5.176c0.718,0.351,1.215,1.033,1.215,1.832v4.656
			c0,1.343-0.975,2.459-2.294,2.711c-2.655,0.508-5.113,1.563-7.255,3.045c-1.118,0.774-2.614,0.688-3.575-0.273l-0.67-0.67
			c-0.553-0.553-0.681-1.365-0.442-2.111c0.662-2.065-0.046-4.472-2.139-5.794c-1.571-0.992-3.653-0.997-5.227-0.01
			c-2.85,1.787-3.162,5.593-0.934,7.821c1.347,1.347,3.27,1.761,4.975,1.248c0.808-0.243,1.68-0.104,2.276,0.493l0.592,0.592
			c0.961,0.961,1.047,2.457,0.273,3.575c-1.483,2.142-2.538,4.6-3.045,7.255c-0.252,1.319-1.368,2.294-2.711,2.294h-4.663
			c-0.795,0-1.473-0.495-1.822-1.21c-1.07-2.194-3.481-3.611-6.174-3.161c-2.466,0.412-4.435,2.486-4.737,4.967
			c-0.428,3.515,2.303,6.503,5.733,6.503c2.278,0,4.238-1.322,5.176-3.238c0.351-0.718,1.033-1.215,1.832-1.215h4.656
			c1.343,0,2.458,0.975,2.711,2.294c0.508,2.655,1.563,5.113,3.045,7.255c0.774,1.118,0.688,2.614-0.273,3.575l-0.67,0.67
			c-0.553,0.553-1.365,0.681-2.11,0.442c-2.065-0.662-4.472,0.046-5.794,2.139c-0.992,1.572-0.997,3.653-0.01,5.227
			c1.787,2.851,5.593,3.162,7.821,0.934c1.347-1.347,1.761-3.27,1.248-4.975c-0.243-0.808-0.104-1.68,0.493-2.276l0.592-0.592
			c0.961-0.961,2.457-1.047,3.575-0.273c2.143,1.483,4.6,2.538,7.255,3.045c1.319,0.252,2.294,1.368,2.294,2.711v4.663
			c0,0.795-0.495,1.473-1.209,1.822c-2.194,1.07-3.611,3.481-3.161,6.174c0.412,2.466,2.486,4.435,4.967,4.737
			c3.515,0.428,6.503-2.303,6.503-5.733c0-2.278-1.322-4.238-3.239-5.176c-0.718-0.352-1.215-1.033-1.215-1.832v-4.655
			c0-1.343,0.975-2.458,2.294-2.711c2.655-0.508,5.113-1.563,7.255-3.045c1.118-0.774,2.614-0.688,3.575,0.273l0.67,0.67
			c0.553,0.553,0.681,1.365,0.442,2.111c-0.662,2.065,0.046,4.472,2.139,5.794c1.572,0.992,3.653,0.997,5.228,0.01
			c2.851-1.787,3.162-5.593,0.934-7.821c-1.347-1.347-3.27-1.76-4.975-1.248c-0.808,0.243-1.68,0.104-2.276-0.493l-0.592-0.592
			c-0.961-0.961-1.047-2.457-0.273-3.575c1.483-2.143,2.538-4.6,3.045-7.255c0.252-1.319,1.368-2.294,2.711-2.294h4.655
			c0.799,0,1.481,0.497,1.832,1.215c0.938,1.916,2.898,3.238,5.176,3.238c3.429,0,6.161-2.988,5.732-6.503
			C122.704,255.247,120.736,253.173,118.27,252.761z"/>
		<g>
			<path style="fill:#ADC6FF;" d="M200.438,461.243H83.558c-4.703,0-8.516-3.813-8.516-8.516V278.69
				c0-4.703,3.813-8.516,8.516-8.516h116.88c4.704,0,8.516,3.813,8.516,8.516v174.036
				C208.955,457.43,205.142,461.243,200.438,461.243z"/>
			<path style="fill:#FF4747;" d="M200.438,270.174H83.558c-4.703,0-8.516,3.813-8.516,8.516v24.746h133.913V278.69
				C208.955,273.987,205.142,270.174,200.438,270.174z"/>
			<g>
				<path style="fill:#FFA30F;" d="M95.986,281.496h3.003v10.619h-3.003V281.496z"/>
				<path style="fill:#FFA30F;" d="M111.23,281.496v10.619h-2.473l-4.688-5.658v5.658h-2.943v-10.619h2.473l4.687,5.658v-5.658
					H111.23z"/>
				<path style="fill:#FFA30F;" d="M116.353,283.817v2.336h4.688v2.321h-4.688v3.641h-3.004v-10.619h8.328v2.321H116.353z"/>
				<path style="fill:#FFA30F;" d="M122.449,286.805c0-3.185,2.502-5.522,5.9-5.522c3.398,0,5.901,2.336,5.901,5.522
					c0,3.186-2.503,5.522-5.901,5.522C124.951,292.327,122.449,289.991,122.449,286.805z M131.217,286.805
					c0-1.835-1.259-3.034-2.867-3.034c-1.607,0-2.866,1.199-2.866,3.034c0,1.835,1.259,3.034,2.866,3.034
					C129.958,289.839,131.217,288.64,131.217,286.805z"/>
				<path style="fill:#FFA30F;" d="M135.824,281.496h5.022c3.519,0,5.931,2.048,5.931,5.309c0,3.262-2.412,5.309-5.931,5.309h-5.022
					V281.496z M140.724,289.718c1.805,0,3.018-1.077,3.018-2.913c0-1.835-1.213-2.912-3.018-2.912h-1.896v5.825H140.724z"/>
				<path style="fill:#FFA30F;" d="M156.876,289.793v2.321h-8.525v-10.619h8.327v2.321h-5.355v1.79h4.718v2.245h-4.718v1.942
					H156.876z"/>
				<path style="fill:#FFA30F;" d="M168.129,292.114l-0.031-5.628l-2.73,4.581h-1.335l-2.715-4.43v5.476h-2.776v-10.619h2.473
					l3.731,6.128l3.641-6.128h2.473l0.031,10.619H168.129z"/>
				<path style="fill:#FFA30F;" d="M173.009,281.496h3.004v10.619h-3.004V281.496z"/>
				<path style="fill:#FFA30F;" d="M177.603,286.805c0-3.231,2.473-5.522,5.84-5.522c1.957,0,3.535,0.713,4.566,2.002l-1.912,1.729
					c-0.667-0.804-1.486-1.244-2.502-1.244c-1.745,0-2.959,1.214-2.959,3.034c0,1.82,1.214,3.034,2.959,3.034
					c1.016,0,1.836-0.44,2.502-1.244l1.912,1.729c-1.031,1.289-2.609,2.002-4.566,2.002
					C180.076,292.327,177.603,290.036,177.603,286.805z"/>
			</g>
			<g>
				<path style="fill:none;stroke:#FFFFFF;stroke-width:1.0079;stroke-miterlimit:10;" d="M184.516,328.217H99.481
					c-2.312,0-4.187-1.874-4.187-4.186l0,0c0-2.312,1.874-4.187,4.187-4.187h85.035c2.312,0,4.186,1.874,4.186,4.187l0,0
					C188.702,326.342,186.828,328.217,184.516,328.217z"/>
				<path style="fill:none;stroke:#FFFFFF;stroke-width:1.0079;stroke-miterlimit:10;" d="M184.516,349.462H99.481
					c-2.312,0-4.187-1.874-4.187-4.186l0,0c0-2.312,1.874-4.186,4.187-4.186h85.035c2.312,0,4.186,1.874,4.186,4.186l0,0
					C188.702,347.587,186.828,349.462,184.516,349.462z"/>
				<path style="fill:none;stroke:#FFFFFF;stroke-width:1.0079;stroke-miterlimit:10;" d="M184.516,370.707H99.481
					c-2.312,0-4.187-1.874-4.187-4.186l0,0c0-2.312,1.874-4.186,4.187-4.186h85.035c2.312,0,4.186,1.874,4.186,4.186l0,0
					C188.702,368.832,186.828,370.707,184.516,370.707z"/>
				<path style="fill:none;stroke:#FFFFFF;stroke-width:1.0079;stroke-miterlimit:10;" d="M184.516,391.952H99.481
					c-2.312,0-4.187-1.874-4.187-4.186v0c0-2.312,1.874-4.186,4.187-4.186h85.035c2.312,0,4.186,1.874,4.186,4.186v0
					C188.702,390.077,186.828,391.952,184.516,391.952z"/>
				<path style="fill:none;stroke:#FFFFFF;stroke-width:0.6881;stroke-miterlimit:10;" d="M134.642,413.197H99.481
					c-2.312,0-4.187-1.874-4.187-4.186l0,0c0-2.312,1.874-4.186,4.187-4.186h35.161c2.312,0,4.186,1.874,4.186,4.186l0,0
					C138.828,411.322,136.954,413.197,134.642,413.197z"/>
				<path style="fill:none;stroke:#FFFFFF;stroke-width:0.6881;stroke-miterlimit:10;" d="M134.642,434.442H99.481
					c-2.312,0-4.187-1.874-4.187-4.186l0,0c0-2.312,1.874-4.186,4.187-4.186h35.161c2.312,0,4.186,1.874,4.186,4.186l0,0
					C138.828,432.567,136.954,434.442,134.642,434.442z"/>
				<path style="fill:none;stroke:#FFFFFF;stroke-width:1.0079;stroke-miterlimit:10;" d="M183.505,434.442h-31.058
					c-2.87,0-5.197-2.327-5.197-5.197v-19.223c0-2.87,2.327-5.197,5.197-5.197h31.058c2.87,0,5.197,2.327,5.197,5.197v19.223
					C188.702,432.115,186.375,434.442,183.505,434.442z"/>
			</g>
		</g>
		
			<ellipse transform="matrix(0.7071 -0.7071 0.7071 0.7071 -32.8798 220.726)" style="fill:#FF4747;" cx="250" cy="150.052" rx="95.293" ry="95.293"/>
		<g>
			<path style="fill:#FFA30F;" d="M163.473,49.034c16.549,0,29.965,13.416,29.965,29.965c0,6.336-1.971,12.208-5.327,17.048
				l8.52,14.514l-15.108-7.645c-5.021,3.795-11.271,6.048-18.05,6.048c-16.549,0-29.965-13.416-29.965-29.965
				C133.508,62.45,146.923,49.034,163.473,49.034z"/>
			<g>
				<g>
					<path style="fill:#FFFFFF;" d="M150.927,86.397l1.173-1.609c0.767-1.052,1.18-2.32,1.18-3.622v-5.781
						c0-4.53,2.975-8.362,7.078-9.656c0.555-0.175,0.925-0.699,0.925-1.281v-0.412c0-1.174,0.951-2.125,2.125-2.125l0,0
						c1.173,0,2.125,0.951,2.125,2.125v0.412c0,0.582,0.37,1.105,0.925,1.281c4.102,1.294,7.078,5.126,7.078,9.656v5.781
						c0,1.302,0.413,2.57,1.18,3.622l1.173,1.609c0.67,0.919,0.014,2.21-1.124,2.21h-22.714
						C150.913,88.607,150.257,87.316,150.927,86.397z"/>
					<path style="fill:#FFFFFF;" d="M166.952,89.993c0.443,0,0.752,0.473,0.543,0.864c-0.781,1.464-2.311,2.465-4.087,2.465
						c-1.776,0-3.306-1.001-4.087-2.465c-0.209-0.391,0.1-0.864,0.543-0.864H166.952z"/>
				</g>
				<g>
					<g>
						<path style="fill:none;stroke:#FFD9C2;stroke-width:1.0924;stroke-miterlimit:10;" d="M174.832,71.044
							c-0.795-2.467-2.493-4.529-4.704-5.796"/>
						<path style="fill:none;stroke:#FFD9C2;stroke-width:1.0924;stroke-miterlimit:10;" d="M177.664,70.99
							c-0.095-0.373-0.205-0.74-0.332-1.1c-1.181-3.367-3.701-6.103-6.921-7.57"/>
					</g>
					<g>
						<path style="fill:none;stroke:#FFD9C2;stroke-width:1.0924;stroke-miterlimit:10;" d="M151.984,71.044
							c0.795-2.467,2.493-4.529,4.704-5.796"/>
						<path style="fill:none;stroke:#FFD9C2;stroke-width:1.0924;stroke-miterlimit:10;" d="M149.152,70.99
							c0.095-0.373,0.206-0.74,0.332-1.1c1.18-3.367,3.701-6.103,6.921-7.57"/>
					</g>
				</g>
			</g>
		</g>
		<g>
			<path style="fill:#FF4747;" d="M440.296,442.68h-61.941c-4.704,0-8.518-3.814-8.518-8.518v-61.941
				c0-4.704,3.814-8.518,8.518-8.518h61.941c4.704,0,8.518,3.814,8.518,8.518v61.941C448.814,438.866,445,442.68,440.296,442.68z"/>
			<path style="fill:#FFFFFF;" d="M395.529,389.558v27.267c0,2.675,2.939,4.308,5.21,2.895l21.921-13.634
				c2.145-1.334,2.145-4.456,0-5.79l-21.921-13.634C398.468,385.25,395.529,386.883,395.529,389.558z"/>
		</g>
		<g>
			<polygon style="fill:#0F57FF;" points="200.936,355.913 184.436,500 251.186,500 255.686,393.788 274.811,500 354.311,500 
				328.436,354.413 			"/>
			<path style="fill:#08297A;" d="M198.055,381.072c12.315,2.622,33.844,6.206,58.756,5.966c0,0,46.423,17.408,80.975,19.984
				l-9.35-52.609l-127.5,1.5L198.055,381.072z"/>
			<g>
				
					<line style="fill:none;stroke:#0F57FF;stroke-width:0.9241;stroke-miterlimit:10;" x1="255.686" y1="393.788" x2="256.811" y2="359.851"/>
				<path style="fill:none;stroke:#0F57FF;stroke-width:0.9241;stroke-miterlimit:10;" d="M249.499,358.596
					c0,0-7.479,21.881,6.573,23.568"/>
				<path style="fill:none;stroke:#0F57FF;stroke-width:0.9241;stroke-miterlimit:10;" d="M308.374,359.851
					c0,0,1.223,29.52,26.768,32.291"/>
			</g>
			<polygon style="fill:#C9450C;" points="202.999,337.351 195.948,361.257 333.654,361.257 330.124,335.382 			"/>
			<path style="fill:#FF6F0F;" d="M202.999,140.617c3.656,5.344,0.844,10.988-3.797,16.744
				c-4.641,5.756-34.132,40.632-34.132,40.632s26.744-15.857,37.648-19.266l9.984,20.531l-6.328,38.391
				c0,0-26.578,10.547-48.375,18.141c-21.797,7.594-55.859,16.327-69.891-5.788c-8.016-12.633-3.921-37.297,11.776-53.395
				c15.328-15.72,22.958-18.222,22.958-18.222s16.875-22.718,30.937-26.656c11.531-12.376,35.964-26.874,41.185-21.383
				C200.186,135.836,202.999,140.617,202.999,140.617z"/>
			<path style="fill:#FFA30F;" d="M273.035,173.579c3.972-2.979,8.859-7.692,11.228-10.04c0.875-0.868,2.181-1.115,3.314-0.631
				c7.179,3.066,32.992,14.487,46.076,25.57l-12.531,151.706c0,0-98.971,0-116.704,0s-2.517-11.816,0-13.23
				c0,0-5.046-68.128-2.233-86.125c1.95-12.478,3.885-28.449,4.889-37.07c0.473-4.06,0.172-8.172-0.888-12.119l-3.469-12.913
				c0,0,25.003-7.991,35.326-10.371c1.612-0.371,3.221,0.631,3.615,2.237l1.652,6.727L273.035,173.579z"/>
			<g>
				<path style="fill:#FFC25E;" d="M201.421,251.423c-0.112,4.159-0.11,8.949-0.026,14.063h125.899l1.161-14.063H201.421z"/>
				<path style="fill:#FFC25E;" d="M326.609,273.776h-125.02c0.137,4.641,0.322,9.395,0.531,14.062h123.327L326.609,273.776z"/>
				<path style="fill:#FFC25E;" d="M203.895,229.07c-0.553,4.038-1.13,8.052-1.709,11.758c-0.108,0.693-0.204,1.469-0.289,2.304
					H329.14l1.161-14.063H203.895z"/>
			</g>
			<path style="fill:#FFFFFF;" d="M287.58,162.908c-1.135-0.485-2.442-0.236-3.318,0.632c-2.37,2.349-7.255,7.06-11.227,10.039
				l-29.724,3.741l-1.652-6.727c-0.395-1.606-2.003-2.609-3.615-2.237c-0.894,0.206-1.905,0.457-2.994,0.738
				c-2.043,8.422-3.217,22.222,13.23,24.726c18.032,2.746,37.753-15.059,44.087-28.817
				C290.378,164.114,288.736,163.402,287.58,162.908z"/>
			<path style="fill:#FF7878;" d="M194.421,130.845l7.875-7.244l11.1-11.959l0.994,18.287l-11.391,10.687
				C202.999,140.617,197.186,139.351,194.421,130.845z"/>
			<path style="fill:#FF6F0F;" d="M191.749,131.383l5.719-5.253c0,0,1.125,8.816,9.188,13.503l-3.844,4.781
				C202.811,144.414,193.061,142.633,191.749,131.383z"/>
			<path style="fill:none;stroke:#C9450C;stroke-width:2;stroke-miterlimit:10;" d="M165.069,197.993
				c0,0-8.008,18.609-23.008,27.608"/>
			
				<line style="fill:none;stroke:#C9450C;stroke-width:2;stroke-miterlimit:10;" x1="165.069" y1="207.414" x2="153.565" y2="234.038"/>
			<g>
				<path style="fill:#08297A;" d="M217.062,253.538H197.99c-1.658,0-3.077-1.19-3.366-2.822l-5.961-33.663
					c-0.371-2.094,1.24-4.014,3.366-4.014h19.072c1.658,0,3.077,1.19,3.366,2.822l5.961,33.663
					C220.799,251.618,219.189,253.538,217.062,253.538z"/>
				<path style="fill:#FF7878;" d="M235.061,256.351l-9-10.547c0,0-3.209-14.72-9.55-18.399l1.361,7.685
					c0.368,2.077-1.361,3.926-3.458,3.697l-16.9-1.842l-6.16-4.695c0,0-2.081,2.982,0,7.367c0,0-0.835,4.494,0.957,6.328
					c0,0-1.547,2.379,0.844,5.479c0,0-1.726,2.115,2.793,4.928c4.519,2.813,18.16,2.531,18.16,2.531l9.844,10.547L235.061,256.351z"
					/>
				<path style="fill:#FFFFFF;" d="M194.913,218.804c0,0.816-0.661,1.477-1.477,1.477s-1.477-0.661-1.477-1.477
					s0.661-1.477,1.477-1.477S194.913,217.989,194.913,218.804z"/>
				<path style="fill:#FFFFFF;" d="M202.717,219.789h-4.781c-0.544,0-0.984-0.441-0.984-0.984l0,0c0-0.544,0.441-0.984,0.984-0.984
					h4.781c0.544,0,0.984,0.441,0.984,0.984l0,0C203.702,219.348,203.261,219.789,202.717,219.789z"/>
			</g>
			<path style="fill:#061F5C;" d="M259.108,133.586c0,0,3.703-11.672,3.891-21.609s-16.312-20.063-29.812-8.813
				c-16.875-1.313-35.377,21.403-26.437,35.625c4.125,6.563,16.687,3.188,16.687,3.188l-2.25-8.391l12.524-7.922
				C233.71,125.664,245.655,136.445,259.108,133.586z"/>
			<path style="fill:#FF7878;" d="M270.499,161.101l-11.405-23.403c1.735-1.028,3.059-2.974,3.406-5.349
				c0.562-3.842-1.642-7.346-4.924-7.826c-3.281-0.48-6.397,2.246-6.959,6.088c-0.007,0.052-0.009,0.103-0.016,0.154
				c-6.52-1.321-13.613-1.617-16.383-12.321c-6.375,13.125-17.251,15.934-17.251,15.934l7.594,13.784c0,0,2.438,18.562,18.75,13.125
				l1.875,8.063l-5.438,0.938c0,0-4.688,18.375,13.125,18.188s32.812-22.688,32.812-22.688L270.499,161.101z"/>
			<path style="fill:#FF5E5E;" d="M243.311,161.289c7.781-2.391,10.875-9.422,12.141-14.344c2.531,6.047,4.19,17.336-10.632,20.832
				L243.311,161.289z"/>
			<path style="fill:none;stroke:#C73838;stroke-width:0.9241;stroke-miterlimit:10;" d="M253.905,133.586
				c-0.281-3.516,3.375-7.594,5.203-4.219"/>
			<g>
				<path style="fill:#061F5C;" d="M227.851,140.43c0.49,1.085,0.409,2.181-0.181,2.447c-0.59,0.266-1.465-0.398-1.955-1.483
					c-0.49-1.085-0.409-2.181,0.181-2.447S227.361,139.344,227.851,140.43z"/>
				<path style="fill:#061F5C;" d="M237.122,136.245c0.49,1.085,0.409,2.181-0.181,2.447c-0.59,0.266-1.465-0.398-1.955-1.483
					c-0.49-1.085-0.409-2.181,0.181-2.447S236.632,135.16,237.122,136.245z"/>
			</g>
			<path style="fill:none;stroke:#C73838;stroke-width:0.9241;stroke-miterlimit:10;" d="M230.092,138.133l2.237,6.551
				c0.275,0.805,1.26,1.103,1.935,0.585l2.578-1.98"/>
			<path style="fill:#FFFFFF;" d="M238.876,154.086l6.873-4.047c0,0-6.094-5.25-8.906-3.75
				C234.03,147.789,238.876,154.086,238.876,154.086z"/>
			<path style="fill:none;stroke:#061F5C;stroke-width:2;stroke-miterlimit:10;" d="M231.92,134.258c0,0,1.19-3.511,3.376-5.079"/>
			<path style="fill:none;stroke:#061F5C;stroke-width:2;stroke-miterlimit:10;" d="M227.081,136.727c0,0-3.775-0.304-5.801,0.749"
				/>
			
				<line style="fill:none;stroke:#C73838;stroke-width:0.9241;stroke-miterlimit:10;" x1="265.797" y1="164.747" x2="260.172" y2="173.242"/>
			<g>
				<path style="fill:#FF7878;" d="M210.301,114.976c0,0-0.2-2.274,0.854-4.524c1.055-2.25,3.234-2.461,3.234-2.461
					s1.055-2.953,3.656-2.672c1.055-2.039,2.391-2.602,4.078-2.18c1.547-2.039,3.867-2.391,5.836-1.828
					c1.969,0.563,6.328,2.531,6.258,3.586c-0.07,1.055-1.898,1.969-3.375,1.477c0.984,1.649-2.109,3.867-3.938,2.813
					c0.703,1.477-1.468,2.967-4.078,2.455c-1.758-0.345-2.602-0.556-2.602-0.556s-0.281,2.602-2.25,2.32
					c-1.969-0.281-4.992-1.477-4.992-1.477L210.301,114.976z"/>
				
					<line style="fill:none;stroke:#C73838;stroke-width:0.9241;stroke-miterlimit:10;" x1="230.842" y1="106.375" x2="223.319" y2="103.773"/>
				
					<line style="fill:none;stroke:#C73838;stroke-width:0.9241;stroke-miterlimit:10;" x1="226.905" y1="109.187" x2="219.452" y2="106.375"/>
				
					<line style="fill:none;stroke:#C73838;stroke-width:0.9241;stroke-miterlimit:10;" x1="220.225" y1="111.086" x2="215.374" y2="108.765"/>
			</g>
			<path style="fill:#FF6F0F;" d="M333.654,188.477c15.105,9.649,19.532,33.609,23.657,61.523c4.125,27.913,10.5,52.663,4.5,76.663
				c-6,24-30,38.625-57.375,28.875c-27.375-9.75-80.25-46.628-79.875-82.002l14.25-17.373c0,0,12.865-2.03,25.99,9.22
				c15.651,2.976,31.385,7.655,38.135,21.155c0,0-1.679-32.244-2.25-52.5C299.936,207.414,321.622,180.791,333.654,188.477z"/>
			<path style="fill:#C9450C;" d="M302.936,286.538c0,0,11.498,0.761,21.575,6.701c2.952,1.74,6.297-1.58,4.478-4.484
				c-5.206-8.309-13.711-16.969-26.832-18.068L302.936,286.538z"/>
			<polygon style="fill:#FF6F0F;" points="233.796,250 241.389,257.476 225.78,276.038 218.608,268.304 			"/>
		</g>
		<g>
			<polygon style="fill:#0F57FF;" points="96.32,130.105 134.767,105.626 77.589,119.201 			"/>
			<polygon style="fill:#08297A;" points="97.368,146.966 134.767,105.626 96.32,130.105 			"/>
			<polygon style="fill:#0F57FF;" points="102.928,135.35 117.568,148.955 134.767,105.626 			"/>
		</g>
		<path style="fill:none;stroke:#B5CBFF;stroke-width:3;stroke-linecap:round;stroke-linejoin:round;stroke-miterlimit:10;" d="
			M89.219,134.258c-29.625,11.268-36.75,59.845-9.188,74.281"/>
		<g>
			<rect x="353.995" y="148.826" style="fill:#FFA30F;" width="81.02" height="53.23"/>
			<path style="fill:#FF6F0F;" d="M427.889,192.328l-27.209-19.899c-3.677-2.689-8.672-2.689-12.349,0l-27.208,19.899
				c-2.859,2.091-5.096,4.918-6.473,8.18l-0.653,1.547h81.02l-0.653-1.547C432.984,197.246,430.747,194.419,427.889,192.328z"/>
			<path style="fill:#FFC25E;" d="M427.889,158.553l-27.209,19.899c-3.677,2.689-8.672,2.689-12.349,0l-27.208-19.899
				c-2.859-2.09-5.096-4.918-6.473-8.18l-0.653-1.547h81.02l-0.653,1.547C432.984,153.635,430.747,156.463,427.889,158.553z"/>
		</g>
		<g>
			<circle style="fill:none;stroke:#FFFFFF;stroke-miterlimit:10;" cx="422.288" cy="234.671" r="2.988"/>
			<line style="fill:none;stroke:#FFFFFF;stroke-miterlimit:10;" x1="429.124" y1="241.507" x2="424.401" y2="236.784"/>
		</g>
		<g>
			<circle style="fill:#FF4747;" cx="412.484" cy="145.579" r="14.016"/>
			
				<text transform="matrix(1 0 0 1 408.4899 153.8024)" style="fill:#FFFFFF; font-family:'Montserrat-ExtraBold'; font-size:25.3521px; letter-spacing:2;">!</text>
		</g>
		<g>
			<path style="fill:#0F57FF;" d="M393.487,116.761H291.113c-6.368,0-11.531-5.163-11.531-11.531l0,0
				c0-6.368,5.163-11.531,11.531-11.531h102.375c6.368,0,11.531,5.163,11.531,11.531l0,0
				C405.019,111.598,399.856,116.761,393.487,116.761z"/>
			<g>
				<path style="fill:#FFFFFF;" d="M299.492,100.29h2.794v9.879h-2.794V100.29z"/>
				<path style="fill:#FFFFFF;" d="M313.674,100.29v9.879h-2.3l-4.361-5.264v5.264h-2.738v-9.879h2.301l4.36,5.264v-5.264H313.674z"
					/>
				<path style="fill:#FFFFFF;" d="M318.441,102.449v2.173h4.361v2.16h-4.361v3.387h-2.795v-9.879h7.749v2.16H318.441z"/>
				<path style="fill:#FFFFFF;" d="M324.112,105.229c0-2.964,2.328-5.137,5.49-5.137s5.49,2.174,5.49,5.137
					c0,2.964-2.329,5.137-5.49,5.137S324.112,108.193,324.112,105.229z M332.269,105.229c0-1.708-1.171-2.823-2.668-2.823
					c-1.496,0-2.667,1.115-2.667,2.823c0,1.708,1.171,2.823,2.667,2.823C331.098,108.052,332.269,106.937,332.269,105.229z"/>
				<path style="fill:#FFFFFF;" d="M336.556,100.29h4.672c3.274,0,5.518,1.905,5.518,4.94c0,3.035-2.244,4.94-5.518,4.94h-4.672
					V100.29z M341.115,107.939c1.679,0,2.808-1.002,2.808-2.71c0-1.708-1.129-2.71-2.808-2.71h-1.764v5.42H341.115z"/>
				<path style="fill:#FFFFFF;" d="M356.142,108.009v2.16h-7.931v-9.879h7.748v2.16h-4.982v1.665h4.39v2.089h-4.39v1.806H356.142z"
					/>
				<path style="fill:#FFFFFF;" d="M366.611,110.169l-0.029-5.236l-2.54,4.262H362.8l-2.526-4.121v5.095h-2.583v-9.879h2.3
					l3.471,5.702l3.387-5.702h2.3l0.029,9.879H366.611z"/>
				<path style="fill:#FFFFFF;" d="M371.151,100.29h2.795v9.879h-2.795V100.29z"/>
				<path style="fill:#FFFFFF;" d="M375.426,105.229c0-3.006,2.301-5.137,5.434-5.137c1.821,0,3.289,0.663,4.248,1.863l-1.779,1.609
					c-0.62-0.748-1.383-1.157-2.328-1.157c-1.624,0-2.753,1.129-2.753,2.823c0,1.694,1.129,2.823,2.753,2.823
					c0.945,0,1.708-0.409,2.328-1.157l1.779,1.609c-0.96,1.2-2.427,1.863-4.248,1.863
					C377.727,110.367,375.426,108.235,375.426,105.229z"/>
			</g>
		</g>
	</g>
</g>
</svg>
