<?xml version="1.0" encoding="utf-8"?>
<!-- Generator: Adobe Illustrator 27.5.0, SVG Export Plug-In . SVG Version: 6.00 Build 0)  -->
<svg version="1.1" xmlns="http://www.w3.org/2000/svg" xmlns:xlink="http://www.w3.org/1999/xlink" x="0px" y="0px"
	 viewBox="0 0 1525 2626.238" style="enable-background:new 0 0 1525 2626.238;" xml:space="preserve">
<g id="Bg">
	<rect style="opacity:0;fill:#FFFFFF;" width="1525" height="2626.24"/>
</g>
<g id="Layer_1">
	<g>
		<g>
			<path style="fill:#FFB68E;" d="M696.54,769.212l-0.427,1.594c1.242,0.408,2.446,0.881,3.631,1.394
				C697.686,770.289,696.54,769.212,696.54,769.212z"/>
		</g>
		<g>
			<path style="fill:#FFB68E;" d="M693.432,770.031c-9.477-8.945-35.617-34.167-39.458-43.849
				c-4.708-11.861,42.595-17.508,46.047-38.838c2.922-18.061-34.584-69.608-51.385-91.622c-5.487-4.568-6.883-17.89-23.318-2.005
				c-24.406,23.585-22.81,50.004-19.241,64.594c0.981,4.012-1.929,8.178-6.107,8.153c-3.691-0.017-16.552-5.585-16.21,1.35
				c0.411,8.397,14.943,22.567,15.941,26.105c2.018,7.158-1.664,14.543-1.664,14.543c-3.18,8.413-6.979,13.427-11.093,16.036
				c9.508,36.626,21.72,70.298,27.306,85.003c3.288-4.258,5.209-6.312,5.209-6.312C651.522,772.068,675.469,765.435,693.432,770.031
				z"/>
		</g>
		<g>
			<path style="fill:#172755;" d="M598.036,708.462c0,0,3.682-7.385,1.664-14.543c-0.998-3.538-15.53-17.707-15.941-26.105
				c-0.341-6.935,12.519-1.367,16.21-1.35c4.178,0.025,7.088-4.142,6.107-8.153c-3.569-14.59-5.164-41.009,19.241-64.594
				c16.435-15.885,17.831-2.563,23.318,2.005c0.01,0.008,0.02,0.02,0.03,0.028c2.358,1.942-6.894-46.156-9.285-53.67
				c-23.19-72.865-97.016,19.773-106.36,35.526c-24.78,41.776-13.83,68.638-12.619,79.219c0.188,1.651,1.007,3.125,2.307,4.178
				l16.587,7.235l-7.33,6.32c-0.509,5.16,2.257,9.65,5.292,14.187c3.188,4.768,30.095,48.17,49.685,35.751
				C591.057,721.888,594.856,716.875,598.036,708.462z"/>
		</g>
		<g>
			<path style="fill:#9393E5;" d="M508.894,1396.861l-30.691,207.498c-13.1,73.9-23.707,139.996-23.707,160.283l-224.497,411.111
				l58.623,8.718c0,0,280.753-292.211,288.567-311.214c8.623-14.897,50.736-135.545,94.723-264.561
				c61.639,75.222,125.346,155.037,151.724,216.315c59.03,137.133,186.399,380.504,186.399,380.504l12.12-3.498l-1.825-2.022
				l53.078-15.524l1.211,2.415l8.37-2.415L923.61,1768.037L772.939,1340.23c-1.037-6.131-2.538-11.583-4.235-16.733
				L508.894,1396.861z"/>
		</g>
		<g>
			<path style="fill:#FFB68E;" d="M190.493,2250.054c0,0,25.66-7.447,52.066-6.542l46.062-59.042l-58.623-8.718L190.493,2250.054z"
				/>
		</g>
		<g>
			<path style="fill:#FFB68E;" d="M1020.329,2199.994l1.825,2.022l43.2,47.874c3.178-0.881,19.095-5.029,37.772-6.176
				l-28.509-56.829l-1.211-2.415L1020.329,2199.994z"/>
		</g>
		<g>
			<path style="fill:#172755;" d="M1064.774,2250.054v47.602h145.931c-3.137-26.319-30.233-32.621-62.411-47.602
				c-13.434-6.258-30.183-7.261-45.167-6.34c-18.676,1.146-34.594,5.294-37.772,6.176
				C1064.976,2249.994,1064.774,2250.054,1064.774,2250.054z"/>
		</g>
		<g>
			<path style="fill:#172755;" d="M190.493,2250.054v47.602h145.928c-3.133-26.319-30.233-32.621-62.411-47.602
				c-9.43-4.392-20.504-6.168-31.451-6.542C216.152,2242.608,190.493,2250.054,190.493,2250.054z"/>
		</g>
		<g>
			<path style="fill:#172755;" d="M1247.891,725.035l-76.798,168.683c18.237,3.544,29.603-26.451,29.603-26.451
				s5.536,8.045,8.885,17.715l70.55-141.271L1247.891,725.035z"/>
		</g>
		<g>
			<path style="fill:#172755;" d="M1143.236,954.904l35.588-8.333l13.958-27.952c-15.412,5.783-30.726,6.52-36.023,6.581
				L1143.236,954.904z"/>
		</g>
		<g>
			<path style="fill:#9BA0A8;" d="M1154.765,925.196c0,0-16.185,8.643-39.622,20.521l28.093,9.187l13.524-29.704
				C1155.513,925.213,1154.765,925.196,1154.765,925.196z"/>
		</g>
		<g>
			<path style="fill:#9BA0A8;" d="M976.076,812.986c0,6.112,2.553,19.691-4.486,25.057c-1.88,1.433-3.703,2.712-5.385,3.836
				l-6.646,29.33l-4.986,22.005l105.046,34.347c19.615-6.197,34.923-12.022,39.432-15.424l30.85-14.93l-36.402-9.185l4.887-10.28
				l38.435,8.307c5.845-13.073,16.533-34.121,23.236-30.126c8.261,4.928-11.137,30.207,8.558,37.201
				c0.847,0.301,1.658,0.435,2.479,0.595l76.798-168.683l-104.809-7.378l-0.217,1.079l-32.929-1.837l0.538-1.538l-113.787-8.01
				l-15.095,66.62c0.229-0.051,0.479-0.166,0.664-0.097C987.204,775.707,976.076,806.875,976.076,812.986z M1036.449,874.695
				l-52.924-10.706l6.006-20.651l55.008,11.563L1036.449,874.695z M990.532,835.111l6.172-21.228l58.687,12.628l-8.093,19.79
				L990.532,835.111z M1086.387,885.25l-36.623-10.555l5.626-10.412l35.496,9.953L1086.387,885.25z M1067.14,796.31l-57.466-9.896
				l5-17.202l60.558,7.307L1067.14,796.31z M1109.272,758.169l4.365-10.338l5.811,1.62l-2.109,4.69
				c4.771-1.888,9.751-3.04,14.803-3.395l2.406-5.696l5.81,1.619l-1.833,4.079c4.094,0.273,8.188,1.027,12.198,2.441
				c0.505,0.179,0.921,0.491,1.416,0.684l2.551-6.043l5.811,1.62l-3.127,6.954c3.918,2.148,7.545,4.677,10.636,7.795l0.276-0.654
				l5.811,1.619l-1.874,4.169c3.611,4.822,6.303,10.309,8.084,16.264l4.092,1.14l-2.456,5.463
				c1.647,9.701,0.977,20.155-2.719,30.403c-10.492,29.095-40.263,45.187-66.492,35.943c-1.808-0.637-3.389-1.612-5.066-2.449
				l-2.814,6.26l-5.062-1.648l3.033-7.18c-19.313-12.748-27.649-39.278-18.591-64.398
				C1089.134,775.532,1098.274,764.826,1109.272,758.169z M1063.841,749.95c1.786-4.956,6.856-7.694,11.323-6.122
				c4.466,1.576,6.637,6.868,4.851,11.819c-1.785,4.957-6.856,7.695-11.322,6.123
				C1064.225,760.196,1062.052,754.904,1063.841,749.95z M1035.896,744.981c1.787-4.953,6.857-7.694,11.324-6.119
				c4.466,1.573,6.636,6.868,4.852,11.821c-1.786,4.953-6.857,7.694-11.323,6.119
				C1036.283,755.229,1034.112,749.938,1035.896,744.981z M1009.065,742.201c1.786-4.953,6.857-7.694,11.323-6.119
				c4.467,1.575,6.638,6.866,4.852,11.819c-1.784,4.954-6.856,7.695-11.322,6.12
				C1009.451,752.449,1007.278,747.154,1009.065,742.201z M1005.51,791.67l60.73,8.6l-8.09,19.794l-57.642-11.19L1005.51,791.67z"/>
		</g>
		<g>
			<path style="fill:#172755;" d="M1142.865,718.736l0.217-1.079l24.009-119.664c-0.548,0.035-1.069,0.161-1.626,0.161
				c-4.69,0-9.028-1.355-12.779-3.573l-42.212,120.781l-0.538,1.538L1142.865,718.736z"/>
		</g>
		<g>
			<path style="fill:#172755;" d="M1102.82,853.529l8.42-19.937l5.811,1.618l-9.387,20.888c1.677,0.836,3.258,1.812,5.066,2.449
				c26.229,9.244,56.001-6.848,66.492-35.943c3.697-10.247,4.366-20.701,2.719-30.403l-9.747,21.682l-5.059-1.645l11.452-27.118
				l1.719,0.479c-1.781-5.955-4.473-11.443-8.084-16.264l-10.328,22.976l-5.059-1.647l11.175-26.463
				c-3.091-3.117-6.718-5.646-10.636-7.795l-9.076,20.192l-5.061-1.648l8.902-21.076c-0.495-0.193-0.91-0.506-1.416-0.684
				c-4.01-1.414-8.103-2.168-12.198-2.441l-10.37,23.069l-5.059-1.648l9.046-21.422c-5.052,0.355-10.032,1.506-14.803,3.395
				l-10.094,22.456l-5.059-1.648l7.087-16.78c-10.997,6.657-20.138,17.363-25.043,30.962
				C1075.171,814.251,1083.507,840.781,1102.82,853.529z M1096.971,785.661c1.335,0,4.261,19.249,4.261,19.249l13.544-22.77
				l8.902,32.122l12.463-5.721l7.096,14.082l13.824-8.361l8.405,24.199l-81.403-22.016
				C1084.063,816.446,1095.635,785.661,1096.971,785.661z"/>
		</g>
		<g>
			<path style="fill:#172755;" d="M1068.693,761.771c4.466,1.572,9.537-1.166,11.322-6.123c1.786-4.952-0.385-10.244-4.851-11.819
				c-4.467-1.572-9.537,1.166-11.323,6.122C1062.052,754.904,1064.225,760.196,1068.693,761.771z"/>
		</g>
		<g>
			<path style="fill:#172755;" d="M1040.749,756.802c4.466,1.575,9.537-1.166,11.323-6.119c1.785-4.953-0.386-10.248-4.852-11.821
				c-4.467-1.574-9.537,1.166-11.324,6.119C1034.112,749.938,1036.283,755.229,1040.749,756.802z"/>
		</g>
		<g>
			<path style="fill:#172755;" d="M1013.918,754.022c4.466,1.574,9.537-1.166,11.322-6.12c1.786-4.953-0.385-10.245-4.852-11.819
				c-4.466-1.574-9.537,1.166-11.323,6.119C1007.278,747.154,1009.451,752.449,1013.918,754.022z"/>
		</g>
		<g>
			<path style="fill:#FF3C00;" d="M1167.091,597.992c13.051-0.844,23.403-11.47,23.403-24.586c0-13.666-11.205-24.746-25.029-24.746
				c-13.827,0-25.033,11.08-25.033,24.746c0,9.03,4.945,16.852,12.254,21.174c3.751,2.218,8.089,3.573,12.779,3.573
				C1166.022,598.153,1166.543,598.027,1167.091,597.992z"/>
		</g>
		<g>
			<polygon style="fill:#172755;" points="1009.675,786.414 1067.14,796.31 1075.233,776.519 1014.675,769.212 			"/>
		</g>
		<g>
			<path style="fill:#172755;" d="M1093.499,888.022l36.402,9.185l2.761-1.337c0,0,1.636-4.181,4.159-9.822l-38.435-8.307
				L1093.499,888.022z"/>
		</g>
		<g>
			<polygon style="fill:#172755;" points="1058.151,820.064 1066.241,800.27 1005.51,791.67 1000.509,808.873 			"/>
		</g>
		<g>
			<polygon style="fill:#172755;" points="996.703,813.883 990.532,835.111 1047.298,846.301 1055.391,826.511 			"/>
		</g>
		<g>
			<polygon style="fill:#172755;" points="983.525,863.989 1036.449,874.695 1044.539,854.901 989.531,843.338 			"/>
		</g>
		<g>
			<polygon style="fill:#172755;" points="1049.764,874.695 1086.387,885.25 1090.887,874.237 1055.391,864.283 			"/>
		</g>
		<g>
			<polygon style="fill:#FF3C00;" points="1167.134,812.238 1172.194,813.883 1181.941,792.201 1184.397,786.738 1180.305,785.598 
				1178.586,785.119 			"/>
		</g>
		<g>
			<polygon style="fill:#FF3C00;" points="1161.894,792.31 1172.221,769.334 1174.095,765.165 1168.285,763.546 1168.009,764.2 
				1156.834,790.663 			"/>
		</g>
		<g>
			<polygon style="fill:#FF3C00;" points="1148.296,776.597 1157.373,756.405 1160.499,749.451 1154.689,747.831 1152.137,753.873 
				1143.236,774.949 			"/>
		</g>
		<g>
			<polygon style="fill:#FF3C00;" points="1128.154,773.817 1138.524,750.748 1140.357,746.67 1134.547,745.051 1132.141,750.747 
				1123.095,772.169 			"/>
		</g>
		<g>
			<polygon style="fill:#FF3C00;" points="1107.244,776.597 1117.338,754.141 1119.447,749.451 1113.637,747.831 1109.272,758.169 
				1102.185,774.949 			"/>
		</g>
		<g>
			<polygon style="fill:#FF3C00;" points="1111.24,833.592 1102.82,853.529 1099.787,860.709 1104.849,862.357 1107.663,856.097 
				1117.051,835.209 			"/>
		</g>
		<g>
			<path style="fill:#FF3C00;" d="M1165.465,838.462l-8.405-24.199l-13.824,8.361l-7.096-14.082l-12.463,5.721l-8.902-32.122
				l-13.544,22.77c0,0-2.926-19.249-4.261-19.249c-1.336,0-12.908,30.785-12.908,30.785L1165.465,838.462z"/>
		</g>
		<g>
			<path style="fill:#FFB68E;" d="M1171.093,893.718c-0.821-0.16-1.632-0.294-2.479-0.595c-19.694-6.994-0.297-32.273-8.558-37.201
				c-6.702-3.996-17.391,17.052-23.236,30.126c-2.523,5.641-4.159,9.822-4.159,9.822l-2.761,1.337l-30.85,14.93
				c-4.509,3.402-19.816,9.227-39.432,15.424c-41.353,13.069-101.943,27.805-121.469,25.037
				c-8.442-1.198-20.557-5.737-34.888-12.456c17.169-18.346,37.982-44.653,56.297-68.933l6.646-29.33
				c1.682-1.124,3.505-2.403,5.385-3.836c7.038-5.365,4.486-18.944,4.486-25.057c0-6.111,11.129-37.279,6.182-39.113
				c-0.185-0.068-0.436,0.046-0.664,0.097c-5.901,1.354-25.724,41.28-23.447,44.515c-10.594,11.009-66.98,87.119-87.84,84.041
				c-9.763-1.44-26.016-10.986-44.746-24.331l-41.944,77.739c68.944,25.318,144.053,52.812,158.76,57.86
				c19.968,6.853,117.022-39.826,172.766-68.077c23.437-11.878,39.622-20.521,39.622-20.521s0.749,0.017,1.995,0.004
				c5.297-0.062,20.611-0.798,36.023-6.581c3.427-1.286,6.856-2.79,10.175-4.626c11.294-6.244,10.234-18.574,6.623-29.011
				c-3.348-9.67-8.885-17.715-8.885-17.715S1189.33,897.262,1171.093,893.718z"/>
		</g>
		<g>
			<path style="fill:#172755;" d="M825.561,878.196l6.383-11.83c0,0-81.386-64.297-119.438-86.087
				c-3.805-3.3-8.072-6.044-12.762-8.078c-1.184-0.513-2.389-0.986-3.631-1.394c-0.878-0.289-1.774-0.542-2.681-0.775
				c-17.963-4.596-41.909,2.037-73.973,33.158c0,0-1.921,2.054-5.209,6.312c-19.816,25.674-91.066,134.381-114.469,395.38
				c-6.889,76.862,9.113,191.979,9.113,191.979l259.81-73.364l54.931-15.513c-52.569-74.044-62.579-225.771-71.65-346.977
				c15.487,3.914,25.616,6.076,25.616,6.076l6.015-11.147L825.561,878.196z"/>
		</g>
		<g>
			<path style="fill:#FF3C00;" d="M1114.688,551.937c0-26.868,27.405-48.718,61.072-48.718c33.683,0,61.084,21.85,61.084,48.718
				c0,7.195,5.819,13.016,13.014,13.016c7.196,0,13.016-5.821,13.016-13.016c0-41.218-39.084-74.747-87.114-74.747
				c-48.031,0-87.102,33.529-87.102,74.747c0,7.195,5.823,13.016,13.015,13.016C1108.869,564.952,1114.688,559.131,1114.688,551.937
				z"/>
		</g>
		<g>
			<path style="fill:#FF3C00;" d="M1175.76,411.278c-70.247,0-127.39,48.589-127.39,108.324c0,7.195,5.82,13.014,13.015,13.014
				c7.194,0,13.014-5.82,13.014-13.014c0-45.375,45.477-82.296,101.361-82.296c55.898,0,101.375,36.921,101.375,82.296
				c0,7.195,5.82,13.014,13.014,13.014c7.192,0,13.016-5.82,13.016-13.014C1303.166,459.867,1246.008,411.278,1175.76,411.278z"/>
		</g>
		<g>
			<path style="fill:#FF3C00;" d="M1175.76,327.978c-87.521,0-158.731,60.308-158.731,134.429c0,7.196,5.82,13.016,13.013,13.016
				c7.195,0,13.016-5.82,13.016-13.016c0-59.771,59.533-108.399,132.703-108.399c73.184,0,132.718,48.629,132.718,108.399
				c0,7.196,5.82,13.016,13.014,13.016c7.192,0,13.014-5.82,13.014-13.016C1334.507,388.285,1263.293,327.978,1175.76,327.978z"/>
		</g>
	</g>
</g>
</svg>
